<svg width="24" height="24" viewBox="0 0 24 24" fill="none" xmlns="http://www.w3.org/2000/svg">
<path fill-rule="evenodd" clip-rule="evenodd" d="M4.49646 7C4.49646 3.96245 6.95885 1.5 9.99638 1.5C13.0339 1.5 15.4963 3.96245 15.4963 7C15.4963 8.88949 14.5435 10.5564 13.0922 11.5466C13.471 11.6854 13.8379 11.8489 14.1909 12.0352C14.0277 12.0419 13.8652 12.1005 13.7302 12.2173C13.5471 12.3757 13.3757 12.5471 13.2173 12.7302C13.112 12.8519 13.054 12.9959 13.0387 13.1428C12.1089 12.7296 11.0794 12.5 9.99629 12.5C5.93031 12.5 2.61981 15.7357 2.49967 19.7723C2.48735 20.1863 2.14172 20.512 1.72769 20.4997C1.31366 20.4873 0.988016 20.1417 1.00034 19.7277C1.11239 15.9629 3.53597 12.7791 6.90053 11.5466C5.44922 10.5564 4.49646 8.88946 4.49646 7ZM9.99638 3C7.7873 3 5.99646 4.79085 5.99646 7C5.99646 9.20915 7.7873 11 9.99638 11C12.2055 11 13.9963 9.20915 13.9963 7C13.9963 4.79085 12.2055 3 9.99638 3Z" fill="#1A1A1A"/>
<path fill-rule="evenodd" clip-rule="evenodd" d="M18 12C17.8783 12 17.7575 12.0044 17.6378 12.0129C17.2907 12.0378 17.0262 12.2931 16.9504 12.6054L16.7904 13.2644C16.7817 13.3 16.7497 13.3427 16.6884 13.3648C16.5754 13.4056 16.4649 13.4514 16.3571 13.5022C16.2982 13.5299 16.2453 13.5224 16.2141 13.5033L15.6348 13.1504C15.3605 12.9833 14.9932 12.9897 14.7302 13.2173C14.5471 13.3757 14.3757 13.5471 14.2173 13.7302C13.9897 13.9932 13.9833 14.3605 14.1504 14.6348L14.5033 15.2141C14.5224 15.2453 14.5299 15.2982 14.5022 15.3571C14.4514 15.4649 14.4056 15.5754 14.3648 15.6884C14.3427 15.7497 14.3 15.7817 14.2644 15.7904L13.6054 15.9504C13.2931 16.0262 13.0378 16.2907 13.0129 16.6378C13.0044 16.7575 13 16.8783 13 17C13 17.1217 13.0044 17.2425 13.0129 17.3622C13.0378 17.7093 13.2931 17.9738 13.6054 18.0496L14.2644 18.2096C14.3 18.2183 14.3427 18.2503 14.3648 18.3116C14.4056 18.4246 14.4514 18.5351 14.5022 18.6429C14.5299 18.7018 14.5224 18.7547 14.5033 18.7859L14.1504 19.3652C13.9833 19.6395 13.9897 20.0068 14.2173 20.2698C14.3757 20.4529 14.5471 20.6243 14.7302 20.7827C14.9932 21.0103 15.3605 21.0167 15.6348 20.8496L16.2141 20.4967C16.2453 20.4776 16.2982 20.4701 16.3571 20.4978C16.4649 20.5486 16.5754 20.5944 16.6884 20.6352C16.7497 20.6573 16.7817 20.7 16.7904 20.7356L16.9504 21.3946C17.0262 21.7069 17.2907 21.9622 17.6378 21.9871C17.7575 21.9956 17.8783 22 18 22C18.1217 22 18.2425 21.9956 18.3622 21.9871C18.7093 21.9622 18.9738 21.7069 19.0496 21.3946L19.2096 20.7356C19.2183 20.7 19.2503 20.6573 19.3116 20.6352C19.4246 20.5944 19.5351 20.5486 19.6429 20.4978C19.7018 20.4701 19.7547 20.4776 19.7859 20.4967L20.3652 20.8496C20.6395 21.0167 21.0068 21.0103 21.2698 20.7827C21.4529 20.6243 21.6243 20.4529 21.7827 20.2698C22.0103 20.0068 22.0167 19.6395 21.8496 19.3652L21.4967 18.7859C21.4776 18.7547 21.4701 18.7018 21.4978 18.6429C21.5486 18.5351 21.5944 18.4246 21.6352 18.3116C21.6573 18.2503 21.7 18.2183 21.7356 18.2096L22.3946 18.0496C22.7069 17.9738 22.9622 17.7093 22.9871 17.3622C22.9956 17.2425 23 17.1217 23 17C23 16.8783 22.9956 16.7575 22.9871 16.6378C22.9622 16.2907 22.7069 16.0262 22.3946 15.9504L21.7356 15.7904C21.7 15.7817 21.6573 15.7497 21.6352 15.6884C21.5944 15.5754 21.5486 15.4649 21.4978 15.3571C21.4701 15.2982 21.4776 15.2453 21.4967 15.2141L21.8496 14.6348C22.0167 14.3605 22.0103 13.9932 21.7827 13.7302C21.6243 13.5471 21.4529 13.3757 21.2698 13.2173C21.0068 12.9897 20.6395 12.9833 20.3652 13.1504L19.7859 13.5033C19.7547 13.5224 19.7018 13.5299 19.6429 13.5022C19.5351 13.4514 19.4246 13.4056 19.3116 13.3648C19.2503 13.3427 19.2183 13.3 19.2096 13.2644L19.0496 12.6054C18.9738 12.2931 18.7093 12.0378 18.3622 12.0129C18.2425 12.0044 18.1217 12 18 12ZM18 20C19.6569 20 21 18.6569 21 17C21 15.3431 19.6569 14 18 14C16.3431 14 15 15.3431 15 17C15 18.6569 16.3431 20 18 20Z" fill="#1A1A1A"/>
<path fill-rule="evenodd" clip-rule="evenodd" d="M18 19C19.1046 19 20 18.1046 20 17C20 15.8954 19.1046 15 18 15C16.8954 15 16 15.8954 16 17C16 18.1046 16.8954 19 18 19ZM18 18C18.5523 18 19 17.5523 19 17C19 16.4477 18.5523 16 18 16C17.4477 16 17 16.4477 17 17C17 17.5523 17.4477 18 18 18Z" fill="#1A1A1A"/>
</svg>
